<svg xmlns="http://www.w3.org/2000/svg" viewBox="0 0 717.62 227.41"><defs><style>.cls-1{fill:#fff;}</style></defs><g id="Camada_2" data-name="Camada 2"><g id="Layer_1" data-name="Layer 1"><path class="cls-1" d="M216.05,86.38l-1,1.15C294,93.41,353.53,120.06,353.53,152c0,36.32-74.23,63.25-168.89,63.25S10.77,188.36,10.77,152c0-32.16,60.22-58.92,139.75-64.61l-.58-1.17C64.7,92.2,0,121.28,0,156.28c0,39.28,81.57,71.13,182.18,71.13s182.17-31.85,182.17-71.13C364.35,121.51,300.47,92.58,216.05,86.38Z"/><path class="cls-1" d="M247.62,19.11c-6-1.11-11.45-1.57-21.81,3.52-15.22,7.48-40,25.87-44.24,61.46h-.16c-4.21-35.59-29-54-44.24-61.46-10.35-5.09-15.79-4.63-21.8-3.52-5.35,1-10.44,6.12-9.1,11.82,1.26,5.35,7.94,10.3,13.77,3.07,6.78-8.42,21.31-.08,32.66,16.28,17.16,24.76,16.91,70.92,16.91,75.48,0,8.49,6,12.77,9.86,13.37h0c.15.21.83.3,2,.23s1.86,0,2-.23h0c3.89-.6,9.85-4.88,9.85-13.37,0-4.56-.25-50.72,16.92-75.48,11.35-16.36,25.88-24.7,32.65-16.28,5.83,7.23,12.53,2.28,13.79-3.07C258.07,25.23,253,20.1,247.62,19.11Z"/><path class="cls-1" d="M198.47,17a17,17,0,1,1-17-17A17,17,0,0,1,198.47,17Zm-17-14.75a7.28,7.28,0,1,0,7.28,7.28A7.28,7.28,0,0,0,181.5,2.21Z"/><path class="cls-1" d="M204.08,172.58c-59.76,0-108.81-14.52-114-33h.12a10.08,10.08,0,0,1-.57-3.23c0-8.14,12.35-17.14,27.49-20.81A51.62,51.62,0,0,1,129,113.93c9.91-.47,23.45,2.15,25.09,16.73.58,5.07,6.22,7.63,9.31,2.38,1.57-2.65,1.71-8.24,1.79-14.59.23-23.24-9.46-57.27-50.45-57.27-25.39,0-37.34,16.42-35.84,20.16s12.69,8.21,15.68-3c3.1-11.63,25.38-11.2,35.83-5.23,6.09,3.47,12.16,14.25,13.26,26,.33,3.55-3.2,5.74-7.85,7.61-40.08,5.62-68.06,18.32-68.06,33.1,0,20,51.12,36.19,114.19,36.19a316.4,316.4,0,0,0,59.66-5.33A307.38,307.38,0,0,1,204.08,172.58Z"/><path class="cls-1" d="M227.45,106.69c-5.51-1.41-8.06-2.27-7.56-7.53,1.1-11.79,7.17-22.57,13.24-26,10.45-6,32.74-6.4,35.85,5.23,3,11.2,14.18,6.72,15.67,3S274.2,61.18,248.82,61.18s-38.57,12.94-45,28.31c-4,9.56-5.16,14.6-4.79,22.15.4,7.9,11.45,7.57,17.06,4.2,6.81-4.09,17.27-3.48,22.5-2.6,21.68,5.34,35.64,13.69,35.64,23.08,0,16.14-41.31,29.24-92.27,29.24-2,0-4,0-5.94-.07a392.18,392.18,0,0,0,39.23,1.91c28.45,0,80.91-6.68,80.91-27.53C296.12,125,267.86,112.26,227.45,106.69Z"/><path class="cls-1" d="M464.43,185.5v-2.56a4.63,4.63,0,0,0-.9-3.28,4.29,4.29,0,0,0-3.24-1.25c-1.83,0-2.75.78-2.75,2.32a5.49,5.49,0,0,0,.28,1.56,2.7,2.7,0,0,1,.14.66c0,.25-.12.37-.41.37a3.85,3.85,0,0,1-1.77-.41c-.53-.28-.79-.59-.79-.92a4.24,4.24,0,0,1,1.39-2.77,6.48,6.48,0,0,1,5-2,6.87,6.87,0,0,1,4.39,1.25A4.3,4.3,0,0,1,467.3,182v8.14a6,6,0,0,0,.46,2.75,1.67,1.67,0,0,0,1.57.82,2.23,2.23,0,0,0,.5,0,2.77,2.77,0,0,1,.5-.09c.24,0,.35.09.33.29s-.34.51-1,.76a4.94,4.94,0,0,1-1.87.39c-1.14,0-2.17-.71-3.09-2.12a9.51,9.51,0,0,1-5.58,2.28,4.41,4.41,0,0,1-3.1-1.05,3.61,3.61,0,0,1-1.16-2.81,4.12,4.12,0,0,1,2.18-3.71Q459.24,186.3,464.43,185.5Zm0,.84a10.82,10.82,0,0,0-5,1.45,3.5,3.5,0,0,0-1.76,3,2.88,2.88,0,0,0,3.1,3.1,4,4,0,0,0,2.91-1.13,3.13,3.13,0,0,0,.73-2.3Z"/><path class="cls-1" d="M490.76,192.12a17.18,17.18,0,0,1-3.43,2.44,6.82,6.82,0,0,1-3,.63,6.67,6.67,0,0,1-5.26-2.45,8.9,8.9,0,0,1-2.13-6.06A9.55,9.55,0,0,1,479.5,180a8.19,8.19,0,0,1,6.24-2.74,9.75,9.75,0,0,1,5,1.48v-8.2c0-2.63-.7-3.91-2.12-3.82l-.72,0a.77.77,0,0,1-.27,0,.35.35,0,0,1-.23-.32c0-.28.17-.46.6-.51a12.8,12.8,0,0,0,4.88-1.92.87.87,0,0,1,.4-.14c.21,0,.31.15.31.46l0,.37V191q0,2.34,1.44,2.34l1.23,0,.18,0a.33.33,0,0,1,.23.33c0,.3-.25.47-.75.53s-.93.09-1.09.12l-1.16.19a7,7,0,0,0-1.84.44,1.36,1.36,0,0,1-.62.22c-.33,0-.49-.33-.49-1Zm0-2.52v-6.85a3.64,3.64,0,0,0-.91-2.74,6.78,6.78,0,0,0-4.86-2,4.94,4.94,0,0,0-4.05,1.91,7.75,7.75,0,0,0-1.55,5,9.14,9.14,0,0,0,2,5.9,6,6,0,0,0,4.78,2.5,5,5,0,0,0,3.3-1A3.37,3.37,0,0,0,490.76,189.6Z"/><path class="cls-1" d="M511.55,191.6l3.51-7.38a9.62,9.62,0,0,0,1.06-3.91c0-1-.66-1.55-2-1.77-.37,0-.56-.19-.56-.41s.18-.42.54-.42a6.75,6.75,0,0,1,.76.06c.3,0,.8,0,1.52,0,1.42,0,2.37,0,2.84-.06l.76,0c.34,0,.49.11.48.34s-.3.38-.87.59a3.56,3.56,0,0,0-1.6,1.92l-6.78,14.15a.77.77,0,0,1-.69.53.83.83,0,0,1-.77-.59l-6-13.7a4.23,4.23,0,0,0-2.27-2.41c-.29-.11-.44-.25-.44-.43s.21-.42.62-.42a3.5,3.5,0,0,1,.48,0q1,.12,3.78.12c.84,0,1.42,0,1.76,0s.77-.06.93-.06c.32,0,.48.13.48.43s-.2.34-.58.38c-1.27.17-1.9.57-1.9,1.2a3.78,3.78,0,0,0,.38,1.39Z"/><path class="cls-1" d="M527.58,184.32l0,.46a9.15,9.15,0,0,0,2,6,6,6,0,0,0,4.84,2.42,8.33,8.33,0,0,0,4.93-2,.68.68,0,0,1,.32-.14c.19,0,.29.09.29.33,0,.41-.49,1-1.46,1.75a9.13,9.13,0,0,1-5.72,2.11,7.32,7.32,0,0,1-5.68-2.57,9.8,9.8,0,0,1,.07-12.7,7.16,7.16,0,0,1,5.55-2.71,6.48,6.48,0,0,1,5.55,2.89,10,10,0,0,1,1,1.91,5.19,5.19,0,0,1,.52,1.69c0,.45-.45.68-1.35.68l-1.54,0-1.42,0Zm.12-1.14h7c1.1,0,1.64-.22,1.64-.67a4.15,4.15,0,0,0-1.4-3,4.28,4.28,0,0,0-3-1.4,3.53,3.53,0,0,0-2.83,1.37A6.84,6.84,0,0,0,527.7,183.18Z"/><path class="cls-1" d="M552.52,180.52q2.79-3.32,5.78-3.31a6.11,6.11,0,0,1,5.26,2.73q1.34,1.88,1.33,5.7v5l0,.62.06,1a1.85,1.85,0,0,0,1.75,1.6l.87.13c.38.05.57.19.59.4s-.22.45-.69.45a7.18,7.18,0,0,1-.81-.07,22.32,22.32,0,0,0-2.53-.1l-2.05.06h-.79l-.6,0-.29-.07a.34.34,0,0,1-.14-.32.39.39,0,0,1,.37-.4l.62-.17c.56-.14.84-.64.84-1.49v-7.17a6.68,6.68,0,0,0-1.34-4.45,4.72,4.72,0,0,0-3.79-1.57,4.93,4.93,0,0,0-3.07,1,2.91,2.91,0,0,0-1.35,2.33v7.94l0,.62,0,1c.07,1.17,1,1.81,2.9,1.92.45,0,.68.19.68.44s-.16.39-.48.39a7,7,0,0,1-1.06-.12c-.26,0-.91,0-2,0-2.21,0-3.52,0-3.95.1s-.71.07-.83.07-.39-.11-.38-.34.15-.31.4-.41a2.79,2.79,0,0,0,1.42-.91,3.23,3.23,0,0,0,.37-1.75V182a3.85,3.85,0,0,0-.36-2,1.46,1.46,0,0,0-1.33-.53l-.89,0a.64.64,0,0,1-.34-.09.3.3,0,0,1-.18-.3c0-.2.18-.33.54-.4a10.61,10.61,0,0,0,2.68-.86l1.1-.54.81-.39a1.09,1.09,0,0,1,.5-.17c.25,0,.36.2.33.61,0,.22,0,.48,0,.79Z"/><path class="cls-1" d="M579.4,179.72v10.46a4.1,4.1,0,0,0,.58,2.64,3.2,3.2,0,0,0,2.44.9,4.51,4.51,0,0,0,2.14-.46l1.08-.52.12,0c.17,0,.25.07.25.23,0,.45-.55.94-1.64,1.47a7,7,0,0,1-3.06.79c-3.18,0-4.78-1.66-4.78-5V179.72h-1.85c-.36,0-.54-.1-.54-.31s.18-.44.54-.75a18.26,18.26,0,0,0,3.72-4.13c.38-.61.64-.92.79-.92s.29.18.29.54l-.08,3.6h4.43a2.53,2.53,0,0,0,1.41-.33,1.24,1.24,0,0,1,.46-.25c.15,0,.22.05.21.23a1.83,1.83,0,0,1-.19.52l-.48,1.2a.88.88,0,0,1-.91.6Z"/><path class="cls-1" d="M597.36,191.28a4.13,4.13,0,0,0,.32,2,1.84,1.84,0,0,0,1.36.64l1,.11c.5.07.74.24.73.53s-.2.34-.56.34-.69,0-1.36-.09c-.37,0-.86,0-1.46,0l-1.33,0-1.52.09a4.37,4.37,0,0,0-.65.06q-.54.06-.75.06c-.38,0-.56-.12-.56-.38a.47.47,0,0,1,.37-.45l.4-.12a1.49,1.49,0,0,0,.92-.79,4.7,4.7,0,0,0,.26-1.81v-9.05a4.83,4.83,0,0,0-.33-2.24c-.22-.35-.7-.52-1.44-.52-.52,0-.78-.11-.76-.33s.36-.39,1.06-.61a20.44,20.44,0,0,0,3-1.33l1.11-.52c.18,0,.27.18.27.5Zm-1.3-22.66c.34,0,.68.28,1,.84l.5.79a1,1,0,0,1,.21.52,2.34,2.34,0,0,1-.71,1.34c-.49.57-.88.86-1.17.86s-.65-.28-1.11-.84a1.57,1.57,0,0,1,.07-2.65C595.39,168.91,595.78,168.62,596.06,168.62Z"/><path class="cls-1" d="M612.89,177.21a8.3,8.3,0,0,1,2.83.43l.91.31c.37.13.56.35.56.63v.33a5.85,5.85,0,0,0,0,.59l.09.81a5.79,5.79,0,0,1,.06.79c0,.54-.16.82-.47.83s-.33-.17-.47-.54a4.26,4.26,0,0,0-4.28-3.16,3,3,0,0,0-2,.71,2.42,2.42,0,0,0,.06,3.65,14.59,14.59,0,0,0,3.49,1.73,9.46,9.46,0,0,1,3.6,2.15,4.36,4.36,0,0,1,1,3,5.38,5.38,0,0,1-1.73,4,5.75,5.75,0,0,1-4.15,1.67,8.63,8.63,0,0,1-3.74-1A1.88,1.88,0,0,0,608,194l-.54-.06a.52.52,0,0,1-.52-.52l0-.89-.06-2.65,0-.62c.06-.38.21-.57.47-.58s.42.19.51.62a6.82,6.82,0,0,0,1.69,3.58,4.07,4.07,0,0,0,3,1.28,3.52,3.52,0,0,0,2.48-.89,3,3,0,0,0,1-2.3,3.39,3.39,0,0,0-2.35-3.17l-1.83-.81a10.27,10.27,0,0,1-3.53-2.23,4,4,0,0,1-1-2.81,4.24,4.24,0,0,1,1.6-3.36A5.81,5.81,0,0,1,612.89,177.21Z"/><path class="cls-1" d="M630.31,179.72v10.46a4,4,0,0,0,.58,2.64,3.19,3.19,0,0,0,2.43.9,4.49,4.49,0,0,0,2.14-.46l1.08-.52.13,0c.16,0,.25.07.25.23q0,.67-1.65,1.47a7,7,0,0,1-3,.79q-4.79,0-4.78-5V179.72h-1.85c-.37,0-.54-.1-.54-.31s.17-.44.54-.75a18.26,18.26,0,0,0,3.72-4.13c.37-.61.64-.92.79-.92s.29.18.29.54l-.08,3.6h4.42a2.57,2.57,0,0,0,1.42-.33,1.24,1.24,0,0,1,.46-.25c.15,0,.22.05.2.23a2,2,0,0,1-.18.52l-.48,1.2a.89.89,0,0,1-.92.6Z"/><path class="cls-1" d="M653,185.5v-2.56a4.63,4.63,0,0,0-.9-3.28,4.29,4.29,0,0,0-3.24-1.25c-1.83,0-2.75.78-2.75,2.32a5.44,5.44,0,0,0,.27,1.56,2.77,2.77,0,0,1,.15.66c0,.25-.12.37-.41.37a3.85,3.85,0,0,1-1.77-.41c-.53-.28-.79-.59-.79-.92a4.24,4.24,0,0,1,1.39-2.77,6.47,6.47,0,0,1,5-2,6.84,6.84,0,0,1,4.38,1.25,4.3,4.3,0,0,1,1.56,3.55v8.14a5.94,5.94,0,0,0,.47,2.75,1.66,1.66,0,0,0,1.57.82,2.23,2.23,0,0,0,.5,0,2.77,2.77,0,0,1,.5-.09c.23,0,.35.09.33.29s-.34.51-1,.76a4.94,4.94,0,0,1-1.87.39c-1.15,0-2.17-.71-3.09-2.12a9.51,9.51,0,0,1-5.58,2.28,4.45,4.45,0,0,1-3.11-1.05,3.63,3.63,0,0,1-1.15-2.81,4.12,4.12,0,0,1,2.18-3.71Q647.8,186.3,653,185.5Zm0,.84a10.78,10.78,0,0,0-5,1.45,3.47,3.47,0,0,0-1.76,3,3.07,3.07,0,0,0,.84,2.27,3,3,0,0,0,2.26.83,4,4,0,0,0,2.91-1.13,3.17,3.17,0,0,0,.73-2.3Z"/><path class="cls-1" d="M452.8,75.33a16.55,16.55,0,0,1,5.24.74l1.69.53c.7.24,1,.6,1,1.1v.57a6.63,6.63,0,0,0,.08,1l.15,1.4a8.87,8.87,0,0,1,.12,1.37c0,.93-.29,1.41-.87,1.43-.31,0-.6-.29-.86-.93a7.86,7.86,0,0,0-7.94-5.45,5.79,5.79,0,0,0-3.79,1.22,4,4,0,0,0,.12,6.3,27.64,27.64,0,0,0,6.45,3c3.21,1.16,5.43,2.4,6.68,3.7a7.28,7.28,0,0,1,1.86,5.24,9,9,0,0,1-3.21,6.93,11.11,11.11,0,0,1-7.68,2.88,17,17,0,0,1-6.93-1.68,4,4,0,0,0-1.12-.4l-1-.11a.91.91,0,0,1-1-.89l0-1.54-.12-4.57.08-1.07c.11-.64.39-1,.87-1s.78.34.94,1.08a11.43,11.43,0,0,0,3.14,6.17,7.82,7.82,0,0,0,5.6,2.22,6.79,6.79,0,0,0,4.6-1.55,5,5,0,0,0,1.79-4q0-3.68-4.35-5.47L451,92.19a19.47,19.47,0,0,1-6.54-3.85,6.68,6.68,0,0,1-1.93-4.85,7.17,7.17,0,0,1,3-5.8A11.37,11.37,0,0,1,452.8,75.33Z"/><path class="cls-1" d="M474.06,87.6l0,.78a15.11,15.11,0,0,0,3.64,10.31,11.44,11.44,0,0,0,9,4.18q4.2,0,9.14-3.51a1.36,1.36,0,0,1,.58-.25q.54,0,.54.57c0,.71-.9,1.72-2.69,3a17.71,17.71,0,0,1-10.6,3.64,14,14,0,0,1-10.53-4.44A16.05,16.05,0,0,1,473.21,80a13.7,13.7,0,0,1,10.28-4.67,12.34,12.34,0,0,1,10.28,5,19,19,0,0,1,1.89,3.3,8.61,8.61,0,0,1,1,2.91c0,.79-.83,1.18-2.51,1.18l-2.85,0-2.62-.07Zm.23-2h13c2,0,3-.38,3-1.14a7,7,0,0,0-2.6-5.21,8.16,8.16,0,0,0-5.64-2.4,6.77,6.77,0,0,0-5.25,2.35A11.44,11.44,0,0,0,474.29,85.62Z"/><path class="cls-1" d="M512.37,81.86q4.47-6.52,8.24-6.53a6.17,6.17,0,0,1,3.14,1.33c1.29.88,2,1.6,2,2.15,0,.35-.39,1-1.23,2s-1.45,1.45-1.8,1.47a6.37,6.37,0,0,1-1.69-.86,5.79,5.79,0,0,0-3.15-1.08,5.4,5.4,0,0,0-5.49,5.53V98.62a7.93,7.93,0,0,0,.86,4.27,3.81,3.81,0,0,0,3,1.45l2,.15c.82.05,1.23.28,1.23.71s-.36.72-1.08.72c-.18,0-.78-.06-1.81-.18-.49,0-1.21-.07-2.17-.07l-2.77,0H510a35.58,35.58,0,0,0-4.29.17c-.67.1-1.13.16-1.39.18-.69,0-1-.21-1-.7s.4-.66,1.2-.8a2.86,2.86,0,0,0,2.13-1.33,11.12,11.12,0,0,0,.48-4.12V83.65q0-4.12-4.23-4.12l-1.31,0c-.59,0-.89-.24-.89-.73,0-.3.2-.52.58-.67a7.4,7.4,0,0,1,.85-.1,21.91,21.91,0,0,0,8.55-3.16,2.58,2.58,0,0,1,.88-.29c.59,0,.89.39.89,1.22l0,.68Z"/><path class="cls-1" d="M547.56,100.15l6.5-12.73a15.62,15.62,0,0,0,2-6.75c0-1.65-1.23-2.66-3.69-3-.7-.09-1-.32-1-.7s.33-.73,1-.73a13.89,13.89,0,0,1,1.43.11c.53,0,1.47.07,2.8.07,2.63,0,4.39,0,5.26-.11.71-.05,1.19-.07,1.42-.07.61,0,.91.2.88.6s-.56.64-1.62,1-2,1.49-3,3.31L547,105.52a1.42,1.42,0,0,1-1.27.9,1.5,1.5,0,0,1-1.43-1L533.08,81.79a7.52,7.52,0,0,0-4.19-4.17c-.54-.18-.81-.43-.81-.73,0-.49.38-.74,1.15-.74a7.41,7.41,0,0,1,.88.08q1.89.21,7,.21c1.57,0,2.65,0,3.27-.07.84-.07,1.42-.11,1.73-.11.59,0,.88.22.88.74s-.36.59-1.08.66c-2.33.29-3.5,1-3.5,2.07a6.19,6.19,0,0,0,.69,2.4Z"/><path class="cls-1" d="M575.94,99.6a6.62,6.62,0,0,0,.6,3.42,3.5,3.5,0,0,0,2.52,1.11l1.77.18c.92.11,1.37.42,1.35.91s-.38.59-1,.59c-.43,0-1.27,0-2.5-.16-.7-.06-1.6-.08-2.71-.08l-2.47,0-2.81.14a9.16,9.16,0,0,0-1.2.11c-.67.07-1.13.11-1.39.11-.7,0-1-.23-1-.67s.23-.62.69-.77l.73-.21a2.75,2.75,0,0,0,1.71-1.36,7.47,7.47,0,0,0,.49-3.12V84.15c0-2-.21-3.28-.62-3.87s-1.3-.9-2.66-.9c-1,0-1.45-.19-1.42-.56s.68-.68,2-1a43.08,43.08,0,0,0,5.49-2.3l2.05-.89c.33,0,.5.31.5.86Zm-2.41-39.08c.62,0,1.26.48,1.9,1.44l.93,1.37a1.56,1.56,0,0,1,.39.9,4,4,0,0,1-1.32,2.31c-.9,1-1.62,1.47-2.17,1.47s-1.2-.48-2-1.44a4.1,4.1,0,0,1-1.28-2.27,4.06,4.06,0,0,1,1.42-2.3C572.29,61,573,60.52,573.53,60.52Z"/><path class="cls-1" d="M602.93,75.33a20.54,20.54,0,0,1,5.91.78c1.74.52,2.6,1.11,2.6,1.77l0,1.07.27,2.73c0,1.27-.31,1.92-.94,2-.29,0-.65-.33-1.1-1.06A10.07,10.07,0,0,0,605.5,79a12.21,12.21,0,0,0-5.63-1.5,7.35,7.35,0,0,0-6.15,3.2A13.48,13.48,0,0,0,591.34,89,14.76,14.76,0,0,0,595,99.1a11.58,11.58,0,0,0,9,4.13,13.46,13.46,0,0,0,8.38-3.26,1.82,1.82,0,0,1,.94-.43c.4-.05.6.12.6.5s-.62,1.29-1.85,2.32a17.33,17.33,0,0,1-11.48,4,13.94,13.94,0,0,1-10.3-4.17,14.1,14.1,0,0,1-4.14-10.34,15.78,15.78,0,0,1,4.91-11.69A16.33,16.33,0,0,1,602.93,75.33Z"/><path class="cls-1" d="M628.19,99.6a6.62,6.62,0,0,0,.6,3.42,3.54,3.54,0,0,0,2.52,1.11l1.77.18c.93.11,1.37.42,1.35.91s-.37.59-1,.59c-.44,0-1.28,0-2.51-.16-.7-.06-1.6-.08-2.7-.08l-2.48,0-2.81.14a9.16,9.16,0,0,0-1.2.11c-.67.07-1.13.11-1.39.11-.69,0-1-.23-1-.67s.23-.62.69-.77l.73-.21a2.77,2.77,0,0,0,1.72-1.36,7.5,7.5,0,0,0,.48-3.12V84.15c0-2-.21-3.28-.62-3.87s-1.3-.9-2.66-.9c-1,0-1.45-.19-1.42-.56s.68-.68,2-1a42.49,42.49,0,0,0,5.49-2.3l2.05-.89c.33,0,.5.31.5.86Zm-2.4-39.08q.93,0,1.89,1.44l.93,1.37a1.56,1.56,0,0,1,.39.9q0,.83-1.32,2.31c-.9,1-1.62,1.47-2.17,1.47s-1.2-.48-2-1.44a4.1,4.1,0,0,1-1.28-2.27A4.12,4.12,0,0,1,623.6,62C624.54,61,625.27,60.52,625.79,60.52Z"/><path class="cls-1" d="M655.53,75.33a17,17,0,0,1,11.9,4.53,14.14,14.14,0,0,1,5,10.8,14.51,14.51,0,0,1-4.9,11.25,17.66,17.66,0,0,1-12.35,4.44,17.19,17.19,0,0,1-12-4.31,15.05,15.05,0,0,1,.29-22.14A17.34,17.34,0,0,1,655.53,75.33Zm-1,1.43a9.87,9.87,0,0,0-7.75,3.32,12.63,12.63,0,0,0-2.94,8.7,17.87,17.87,0,0,0,3.67,11.46,11.25,11.25,0,0,0,9.13,4.61,9.3,9.3,0,0,0,7.52-3.27c1.83-2.17,2.75-5.13,2.75-8.86q0-7.06-3.46-11.51A10.82,10.82,0,0,0,654.55,76.76Z"/><path class="cls-1" d="M416,154.5l6.5-12.73a15.66,15.66,0,0,0,2-6.75q0-2.47-3.69-3c-.7-.1-1-.33-1-.7s.33-.74,1-.74a13.54,13.54,0,0,1,1.42.11c.54,0,1.48.07,2.81.07,2.63,0,4.39,0,5.26-.11.71-.05,1.19-.07,1.42-.07.61,0,.91.2.88.6s-.57.64-1.62,1-2,1.49-3,3.31l-12.55,24.41a1.42,1.42,0,0,1-1.28.9,1.49,1.49,0,0,1-1.42-1l-11.17-23.62A7.47,7.47,0,0,0,397.3,132c-.54-.19-.81-.44-.81-.74,0-.49.38-.74,1.15-.74a7.41,7.41,0,0,1,.88.08q1.89.21,7,.21c1.57,0,2.65,0,3.27-.07.84-.07,1.42-.11,1.73-.11.58,0,.88.22.88.74s-.36.59-1.08.66c-2.33.29-3.5,1-3.5,2.07a6.19,6.19,0,0,0,.69,2.4Z"/><path class="cls-1" d="M449.47,129.68a17,17,0,0,1,11.9,4.53,14.13,14.13,0,0,1,5,10.8,14.53,14.53,0,0,1-4.88,11.25,17.7,17.7,0,0,1-12.36,4.44,17.19,17.19,0,0,1-12-4.31,15.05,15.05,0,0,1,.29-22.14A17.34,17.34,0,0,1,449.47,129.68Zm-1,1.43a9.87,9.87,0,0,0-7.75,3.32,12.63,12.63,0,0,0-2.94,8.7,17.87,17.87,0,0,0,3.67,11.46,11.26,11.26,0,0,0,9.13,4.61,9.3,9.3,0,0,0,7.52-3.27c1.83-2.17,2.75-5.13,2.75-8.86q0-7.06-3.46-11.51A10.82,10.82,0,0,0,448.49,131.11Z"/><path class="cls-1" d="M481.89,109.42v42.1a11.21,11.21,0,0,0,.73,4.52c.57,1.19,2.16,2,4.78,2.4.72.12,1.09.36,1.11.74,0,.54-.24.81-.8.81a4.89,4.89,0,0,1-1-.15,10.45,10.45,0,0,0-1.74-.11l-3.36,0h-2c-2.45,0-4,0-4.52.11-.82.12-1.31.18-1.46.18-.67,0-1-.24-1.05-.7s.34-.7,1.08-.88a4.27,4.27,0,0,0,2.33-1.24,4.07,4.07,0,0,0,.6-2.49V115c0-2.2-.82-3.3-2.47-3.3l-1.92.07a2.48,2.48,0,0,1-.66-.08.63.63,0,0,1-.46-.59c0-.34.34-.6,1-.77a19,19,0,0,0,2.39-.68l2.36-.9a18.56,18.56,0,0,0,3.75-1.72,1.55,1.55,0,0,1,.77-.28c.39,0,.58.5.58,1.58Z"/><path class="cls-1" d="M518.16,155.32a13.6,13.6,0,0,1-10.85,5.38c-3.6,0-6.4-1-8.42-3.1s-3-4.95-3-8.66l0-2.37V134.7a3.3,3.3,0,0,0-.81-2.55,5,5,0,0,0-3-.82c-.65-.05-1-.29-.93-.74s.82-.66,2.38-.73l2.92-.11a22,22,0,0,0,2.87-.5,3.78,3.78,0,0,1,.85-.14c.69,0,1,.56,1,1.68v.54l-.15,16v1.15l.62,4.34a7.62,7.62,0,0,0,3,3.8,8.36,8.36,0,0,0,4.79,1.51,10.24,10.24,0,0,0,6-1.86q2.64-1.86,2.64-4.24V134.92a2.9,2.9,0,0,0-3.54-3.55c-.82,0-1.23-.23-1.23-.67s.46-.82,1.39-.84l1.27-.07,2.69-.11a13.58,13.58,0,0,0,3-.57,5,5,0,0,1,.93-.18q.81,0,.81,1.29V153.5a7,7,0,0,0,.63,3.64,3.09,3.09,0,0,0,2.6.87h.62l.54,0c.56,0,.86.18.88.55s-.72.81-2.23.88l-2.43.14a22.38,22.38,0,0,0-3.23.29,6.46,6.46,0,0,1-1.43.22q-1.23,0-1.23-3.36Z"/><path class="cls-1" d="M544.15,135.38q5.16-5.7,10.71-5.7a11.6,11.6,0,0,1,9.74,4.7q2.46,3.24,2.46,9.84v8.58l0,1.08.11,1.72q.42,2.39,3.24,2.77l1.61.21c.7.1,1.06.33,1.08.71s-.4.77-1.27.77c-.28,0-.78-.05-1.49-.13a43.89,43.89,0,0,0-4.69-.16l-3.8.11h-1.46l-1.11.07-.54-.11a.57.57,0,0,1-.27-.55c0-.37.23-.61.69-.71l1.16-.28c1-.24,1.54-1.1,1.54-2.58V143.37c0-3.33-.83-5.88-2.47-7.69a9,9,0,0,0-7-2.7,9.65,9.65,0,0,0-5.7,1.76q-2.49,1.75-2.49,4v13.69l0,1.08,0,1.8q.19,3,5.35,3.3c.85.08,1.27.33,1.27.77s-.29.67-.88.67a13.74,13.74,0,0,1-2-.21c-.48,0-1.69-.08-3.61-.08q-6.14,0-7.32.16c-.8.08-1.31.13-1.54.13-.49,0-.72-.2-.69-.59s.27-.53.73-.7a5.21,5.21,0,0,0,2.64-1.58,5.29,5.29,0,0,0,.67-3V138a6.32,6.32,0,0,0-.66-3.45,2.83,2.83,0,0,0-2.46-.92l-1.65,0a1.24,1.24,0,0,1-.62-.15.52.52,0,0,1-.35-.51c0-.35.33-.58,1-.7a21.38,21.38,0,0,0,5-1.47l2-.93,1.5-.69a2.06,2.06,0,0,1,.93-.28c.46,0,.66.34.61,1,0,.38,0,.83,0,1.36Z"/><path class="cls-1" d="M586.05,134v18c0,2.34.36,3.86,1.08,4.55a6.16,6.16,0,0,0,4.5,1.55,9.09,9.09,0,0,0,4-.79l2-.9.23-.07c.31,0,.46.13.46.39,0,.78-1,1.63-3,2.54a13.75,13.75,0,0,1-5.66,1.37q-8.85,0-8.86-8.59V134h-3.42c-.67,0-1-.18-1-.54s.33-.77,1-1.3a32.31,32.31,0,0,0,6.89-7.12c.69-1.06,1.18-1.59,1.46-1.59s.54.32.54.94l-.15,6.2h8.2a5,5,0,0,0,2.62-.57,2.4,2.4,0,0,1,.84-.43c.29-.05.41.08.39.4a3.33,3.33,0,0,1-.35.9l-.88,2.06a1.66,1.66,0,0,1-1.7,1.05Z"/><path class="cls-1" d="M620.16,144v-4.42c0-2.74-.55-4.62-1.65-5.67a8.31,8.31,0,0,0-6-2.14q-5.09,0-5.08,4a8.7,8.7,0,0,0,.5,2.71,4.69,4.69,0,0,1,.27,1.13c0,.43-.23.64-.77.64a7.39,7.39,0,0,1-3.26-.71c-1-.48-1.48-1-1.48-1.58,0-1.48.86-3.07,2.58-4.79a12.44,12.44,0,0,1,9.2-3.46c3.5,0,6.2.72,8.13,2.17a7.19,7.19,0,0,1,2.89,6.1V152a9.67,9.67,0,0,0,.86,4.74,3.16,3.16,0,0,0,2.91,1.42,4.52,4.52,0,0,0,.92-.07,5.77,5.77,0,0,1,.93-.15c.44,0,.64.14.61.5s-.63.87-1.81,1.31a10,10,0,0,1-3.48.66c-2.11,0-4-1.21-5.71-3.65q-5.58,3.94-10.34,3.94a8.58,8.58,0,0,1-5.75-1.81,6.06,6.06,0,0,1-2.13-4.86q0-4.12,4-6.4T620.16,144Zm0,1.43c-4,.34-7,1.17-9.22,2.52s-3.25,3.06-3.25,5.15a5.06,5.06,0,0,0,1.55,3.91,5.91,5.91,0,0,0,4.19,1.44,7.74,7.74,0,0,0,5.39-2,5.14,5.14,0,0,0,1.34-3.95Z"/><path class="cls-1" d="M646,136.21q4.47-6.53,8.24-6.53a6.14,6.14,0,0,1,3.14,1.33c1.29.88,2,1.6,2,2.15,0,.35-.38,1-1.23,2s-1.45,1.45-1.8,1.47a6.37,6.37,0,0,1-1.69-.86,5.79,5.79,0,0,0-3.15-1.08,5.4,5.4,0,0,0-5.49,5.53V153a7.83,7.83,0,0,0,.87,4.27,3.77,3.77,0,0,0,3,1.45l2,.15c.82,0,1.23.28,1.23.71s-.36.72-1.08.72c-.18,0-.78-.06-1.81-.18-.49-.05-1.21-.07-2.16-.07l-2.78,0h-1.7a35.58,35.58,0,0,0-4.29.17c-.66.1-1.13.16-1.38.18-.7,0-1.05-.21-1.05-.7s.4-.66,1.2-.8a2.86,2.86,0,0,0,2.13-1.33,11.08,11.08,0,0,0,.49-4.12V138c0-2.75-1.42-4.13-4.24-4.13l-1.31,0c-.59,0-.89-.25-.89-.74,0-.29.2-.51.58-.66s.52-.08.85-.11a21.71,21.71,0,0,0,8.55-3.15,2.65,2.65,0,0,1,.88-.29c.59,0,.89.38.89,1.22l0,.68Z"/><path class="cls-1" d="M673.42,154a6.64,6.64,0,0,0,.59,3.42,3.54,3.54,0,0,0,2.52,1.11l1.78.18c.92.12,1.37.42,1.34.91s-.37.59-1,.59c-.44,0-1.27,0-2.51-.16-.69-.05-1.59-.08-2.7-.08l-2.47,0-2.82.14a9.52,9.52,0,0,0-1.2.11c-.66.07-1.13.11-1.39.11-.69,0-1-.23-1-.67s.23-.62.7-.77l.73-.22a2.71,2.71,0,0,0,1.71-1.35,7.5,7.5,0,0,0,.48-3.12V138.5c0-2-.2-3.28-.61-3.87s-1.3-.9-2.66-.9c-1,0-1.45-.19-1.43-.56s.69-.68,2-1a43.08,43.08,0,0,0,5.49-2.3l2-.89c.33,0,.5.31.5.86ZM671,114.87c.62,0,1.25.48,1.9,1.44l.93,1.37a1.54,1.54,0,0,1,.38.9c0,.55-.41,1.32-1.31,2.31s-1.63,1.47-2.17,1.47-1.2-.48-2-1.44a4,4,0,0,1-1.28-2.27,4.14,4.14,0,0,1,1.41-2.31Q670.23,114.87,671,114.87Z"/><path class="cls-1" d="M700.75,129.68a17,17,0,0,1,11.9,4.53,14.14,14.14,0,0,1,5,10.8,14.53,14.53,0,0,1-4.89,11.25,17.69,17.69,0,0,1-12.36,4.44,17.14,17.14,0,0,1-12-4.31,14.32,14.32,0,0,1-4.72-11.06,14.46,14.46,0,0,1,5-11.08A17.34,17.34,0,0,1,700.75,129.68Zm-1,1.43a9.85,9.85,0,0,0-7.74,3.32,12.63,12.63,0,0,0-2.94,8.7,17.81,17.81,0,0,0,3.67,11.46,11.25,11.25,0,0,0,9.13,4.61,9.28,9.28,0,0,0,7.51-3.27c1.84-2.17,2.75-5.13,2.75-8.86q0-7.06-3.46-11.51A10.82,10.82,0,0,0,699.77,131.11Z"/></g></g></svg>