<svg xmlns="http://www.w3.org/2000/svg" xmlns:xlink="http://www.w3.org/1999/xlink" viewBox="0 0 717.94 227.41"><defs><style>.cls-1{fill:url(#linear-gradient);}.cls-2{fill:url(#linear-gradient-2);}.cls-3{fill:url(#linear-gradient-3);}.cls-4{fill:url(#linear-gradient-4);}.cls-5{fill:url(#linear-gradient-5);}.cls-6{fill:url(#linear-gradient-6);}.cls-7{fill:url(#linear-gradient-7);}.cls-8{fill:url(#linear-gradient-8);}.cls-9{fill:url(#linear-gradient-9);}.cls-10{fill:url(#linear-gradient-10);}.cls-11{fill:url(#linear-gradient-11);}.cls-12{fill:url(#linear-gradient-12);}.cls-13{fill:url(#linear-gradient-13);}.cls-14{fill:url(#linear-gradient-14);}.cls-15{fill:url(#linear-gradient-15);}.cls-16{fill:url(#linear-gradient-16);}.cls-17{fill:url(#linear-gradient-17);}.cls-18{fill:url(#linear-gradient-18);}.cls-19{fill:url(#linear-gradient-19);}.cls-20{fill:url(#linear-gradient-20);}.cls-21{fill:url(#linear-gradient-21);}.cls-22{fill:url(#linear-gradient-22);}.cls-23{fill:url(#linear-gradient-23);}.cls-24{fill:url(#linear-gradient-24);}.cls-25{fill:url(#linear-gradient-25);}.cls-26{fill:url(#linear-gradient-26);}.cls-27{fill:url(#linear-gradient-27);}.cls-28{fill:url(#linear-gradient-28);}.cls-29{fill:url(#linear-gradient-29);}.cls-30{fill:url(#linear-gradient-30);}.cls-31{fill:url(#linear-gradient-31);}.cls-32{fill:url(#linear-gradient-32);}</style><linearGradient id="linear-gradient" x1="182.17" y1="266.88" x2="182.17" y2="36.74" gradientUnits="userSpaceOnUse"><stop offset="0" stop-color="#fff"/><stop offset="1" stop-color="#0076c0"/></linearGradient><linearGradient id="linear-gradient-2" x1="181.5" y1="266.87" x2="181.5" y2="36.74" xlink:href="#linear-gradient"/><linearGradient id="linear-gradient-3" x1="181.5" y1="266.89" x2="181.5" y2="36.74" xlink:href="#linear-gradient"/><linearGradient id="linear-gradient-4" x1="154.65" y1="67.21" x2="154.65" y2="194.37" gradientUnits="userSpaceOnUse"><stop offset="0" stop-color="#00a0af"/><stop offset="1" stop-color="#99d9df"/></linearGradient><linearGradient id="linear-gradient-5" x1="236.05" y1="58.38" x2="236.05" y2="169.09" gradientUnits="userSpaceOnUse"><stop offset="0" stop-color="#716fb3"/><stop offset="1" stop-color="#c6c5e1"/></linearGradient><linearGradient id="linear-gradient-6" x1="429.59" y1="104.72" x2="429.59" y2="67.52" gradientUnits="userSpaceOnUse"><stop offset="0" stop-color="#6ac0ec"/><stop offset="0.04" stop-color="#56b2e4"/><stop offset="0.11" stop-color="#3b9fd9"/><stop offset="0.19" stop-color="#2590d0"/><stop offset="0.28" stop-color="#1484c9"/><stop offset="0.4" stop-color="#097cc4"/><stop offset="0.56" stop-color="#0277c1"/><stop offset="1" stop-color="#0076c0"/></linearGradient><linearGradient id="linear-gradient-7" x1="468.08" y1="104.72" x2="468.08" y2="67.52" xlink:href="#linear-gradient-6"/><linearGradient id="linear-gradient-8" x1="506.27" y1="104.29" x2="506.27" y2="66.66" xlink:href="#linear-gradient-6"/><linearGradient id="linear-gradient-9" x1="547.6" y1="104.8" x2="547.6" y2="68.51" xlink:href="#linear-gradient-6"/><linearGradient id="linear-gradient-10" x1="582.78" y1="104.16" x2="582.78" y2="49.77" xlink:href="#linear-gradient-6"/><linearGradient id="linear-gradient-11" x1="615.44" y1="104.72" x2="615.44" y2="67.52" xlink:href="#linear-gradient-6"/><linearGradient id="linear-gradient-12" x1="658.93" y1="104.72" x2="658.93" y2="67.52" xlink:href="#linear-gradient-6"/><linearGradient id="linear-gradient-13" x1="397.79" y1="160.51" x2="397.79" y2="129.91" xlink:href="#linear-gradient-6"/><linearGradient id="linear-gradient-14" x1="434.75" y1="160.44" x2="434.75" y2="129.07" xlink:href="#linear-gradient-6"/><linearGradient id="linear-gradient-15" x1="467.05" y1="159.78" x2="467.05" y2="105.86" xlink:href="#linear-gradient-6"/><linearGradient id="linear-gradient-16" x1="499.05" y1="160.44" x2="499.05" y2="128.31" xlink:href="#linear-gradient-6"/><linearGradient id="linear-gradient-17" x1="544.81" y1="159.78" x2="544.81" y2="128.31" xlink:href="#linear-gradient-6"/><linearGradient id="linear-gradient-18" x1="581.08" y1="160.44" x2="581.08" y2="122.8" xlink:href="#linear-gradient-6"/><linearGradient id="linear-gradient-19" x1="611.34" y1="160.44" x2="611.34" y2="111.55" xlink:href="#linear-gradient-6"/><linearGradient id="linear-gradient-20" x1="642.89" y1="160.08" x2="642.89" y2="128.35" xlink:href="#linear-gradient-6"/><linearGradient id="linear-gradient-21" x1="669.06" y1="159.96" x2="669.06" y2="114.09" xlink:href="#linear-gradient-6"/><linearGradient id="linear-gradient-22" x1="699.92" y1="160.44" x2="699.92" y2="129.07" xlink:href="#linear-gradient-6"/><linearGradient id="linear-gradient-23" x1="449.16" y1="194.41" x2="449.16" y2="175.5" gradientUnits="userSpaceOnUse"><stop offset="0" stop-color="#80d0d7"/><stop offset="1" stop-color="#00a0af"/></linearGradient><linearGradient id="linear-gradient-24" x1="474.46" y1="194.42" x2="474.46" y2="161.37" xlink:href="#linear-gradient-23"/><linearGradient id="linear-gradient-25" x1="499.62" y1="194.46" x2="499.62" y2="176" xlink:href="#linear-gradient-23"/><linearGradient id="linear-gradient-26" x1="522.32" y1="194.41" x2="522.32" y2="175.5" xlink:href="#linear-gradient-23"/><linearGradient id="linear-gradient-27" x1="548.64" y1="194.02" x2="548.64" y2="175.04" xlink:href="#linear-gradient-23"/><linearGradient id="linear-gradient-28" x1="572.54" y1="194.41" x2="572.54" y2="171.71" xlink:href="#linear-gradient-23"/><linearGradient id="linear-gradient-29" x1="589.65" y1="194.13" x2="589.65" y2="166.47" xlink:href="#linear-gradient-23"/><linearGradient id="linear-gradient-30" x1="606.73" y1="194.41" x2="606.73" y2="175.5" xlink:href="#linear-gradient-23"/><linearGradient id="linear-gradient-31" x1="626.09" y1="194.41" x2="626.09" y2="171.71" xlink:href="#linear-gradient-23"/><linearGradient id="linear-gradient-32" x1="647.49" y1="194.41" x2="647.49" y2="175.5" xlink:href="#linear-gradient-23"/></defs><g id="Layer_2" data-name="Layer 2"><g id="Layer_1-2" data-name="Layer 1"><path class="cls-1" d="M216.05,86.38l-1,1.15C294,93.41,353.53,120.06,353.53,152c0,36.32-74.23,63.25-168.89,63.25S10.77,188.36,10.77,152c0-32.16,60.22-58.92,139.75-64.61l-.58-1.17C64.7,92.2,0,121.28,0,156.28c0,39.28,81.57,71.13,182.18,71.13s182.17-31.85,182.17-71.13C364.35,121.51,300.47,92.58,216.05,86.38Z"/><path class="cls-2" d="M247.62,19.11c-6-1.11-11.45-1.57-21.81,3.52-15.22,7.48-40,25.87-44.24,61.46h-.16c-4.21-35.59-29-54-44.24-61.46-10.35-5.09-15.79-4.63-21.8-3.52-5.35,1-10.44,6.12-9.1,11.82,1.26,5.35,7.94,10.3,13.77,3.07,6.78-8.42,21.31-.08,32.66,16.28,17.16,24.76,16.91,70.92,16.91,75.48,0,8.49,6,12.77,9.86,13.37h0c.15.21.83.3,2,.23s1.86,0,2-.23h0c3.89-.6,9.85-4.88,9.85-13.37,0-4.56-.25-50.72,16.92-75.48,11.35-16.36,25.88-24.7,32.65-16.28,5.83,7.23,12.53,2.28,13.79-3.07C258.07,25.23,253,20.1,247.62,19.11Z"/><path class="cls-3" d="M198.47,17a17,17,0,1,1-17-17A17,17,0,0,1,198.47,17Zm-17-14.75a7.28,7.28,0,1,0,7.28,7.28A7.28,7.28,0,0,0,181.5,2.21Z"/><path class="cls-4" d="M204.08,172.58c-59.76,0-108.81-14.52-114-33h.12a10.08,10.08,0,0,1-.57-3.23c0-8.14,12.35-17.14,27.49-20.81A51.62,51.62,0,0,1,129,113.93c9.91-.47,23.45,2.15,25.09,16.73.58,5.07,6.22,7.63,9.31,2.38,1.57-2.65,1.71-8.24,1.79-14.59.23-23.24-9.46-57.27-50.45-57.27-25.39,0-37.34,16.42-35.84,20.16s12.69,8.21,15.68-3c3.1-11.63,25.38-11.2,35.83-5.23,6.09,3.47,12.16,14.25,13.26,26,.33,3.55-3.2,5.74-7.85,7.61-40.08,5.62-68.06,18.32-68.06,33.1,0,20,51.12,36.19,114.19,36.19a316.4,316.4,0,0,0,59.66-5.33A307.38,307.38,0,0,1,204.08,172.58Z"/><path class="cls-5" d="M227.45,106.69c-5.51-1.41-8.06-2.27-7.56-7.53,1.1-11.79,7.17-22.57,13.24-26,10.45-6,32.74-6.4,35.85,5.23,3,11.2,14.18,6.72,15.67,3S274.2,61.18,248.82,61.18s-38.57,12.94-45,28.31c-4,9.56-5.16,14.6-4.79,22.15.4,7.9,11.45,7.57,17.06,4.2,6.81-4.09,17.27-3.48,22.5-2.6,21.68,5.34,35.64,13.69,35.64,23.08,0,16.14-41.31,29.24-92.27,29.24-2,0-4,0-5.94-.07a392.18,392.18,0,0,0,39.23,1.91c28.45,0,80.91-6.68,80.91-27.53C296.12,125,267.86,112.26,227.45,106.69Z"/><path class="cls-6" d="M430.29,67.52a21.64,21.64,0,0,1,6.58.89l2.13.64c.87.28,1.31.72,1.31,1.31v.69a6.94,6.94,0,0,0,.1,1.2l.19,1.68a10.06,10.06,0,0,1,.15,1.63c0,1.12-.36,1.69-1.09,1.72-.4,0-.76-.34-1.09-1.11q-2.67-6.54-10-6.54a7.48,7.48,0,0,0-4.77,1.47,4.65,4.65,0,0,0,.15,7.55c1.34,1,4,2.17,8.11,3.58s6.83,2.88,8.4,4.44A8.51,8.51,0,0,1,442.83,93a10.57,10.57,0,0,1-4,8.3,14.42,14.42,0,0,1-9.66,3.46,22.17,22.17,0,0,1-8.72-2,5.43,5.43,0,0,0-1.41-.47l-1.26-.13a1.13,1.13,0,0,1-1.21-1.07l0-1.84-.15-5.48.1-1.29c.13-.77.49-1.17,1.09-1.2s1,.41,1.19,1.29a13.47,13.47,0,0,0,3.94,7.4,10.07,10.07,0,0,0,7,2.66,8.78,8.78,0,0,0,5.79-1.85A5.87,5.87,0,0,0,437.74,96q0-4.39-5.47-6.56L428,87.73q-5.81-2.24-8.23-4.61a7.87,7.87,0,0,1-2.42-5.81,8.44,8.44,0,0,1,3.73-7A14.74,14.74,0,0,1,430.29,67.52Z"/><path class="cls-7" d="M457,82.23l0,.94a17.64,17.64,0,0,0,4.58,12.36,14.7,14.7,0,0,0,11.28,5q5.28,0,11.5-4.21a1.77,1.77,0,0,1,.73-.3c.45,0,.68.2.68.68q0,1.29-3.4,3.64A23,23,0,0,1,469,104.72,18.44,18.44,0,0,1,456,73.13a17.57,17.57,0,0,1,12.93-5.61,15.81,15.81,0,0,1,12.93,6,22,22,0,0,1,2.38,4,10,10,0,0,1,1.21,3.48c0,.94-1.06,1.42-3.16,1.42l-3.59,0-3.29-.08Zm.29-2.37h16.41c2.55,0,3.83-.45,3.83-1.37q0-3.36-3.27-6.24a10.52,10.52,0,0,0-7.09-2.88,8.67,8.67,0,0,0-6.61,2.82A13.33,13.33,0,0,0,457.31,79.86Z"/><path class="cls-8" d="M505.2,75.35q5.63-7.83,10.36-7.83a8,8,0,0,1,4,1.59c1.63,1.07,2.48,1.93,2.54,2.59,0,.42-.48,1.21-1.54,2.36s-1.82,1.73-2.27,1.76a8.13,8.13,0,0,1-2.13-1,7.52,7.52,0,0,0-4-1.29,6.85,6.85,0,0,0-4.92,1.89,6.29,6.29,0,0,0-2,4.73V95.44q0,3.6,1.09,5.13a4.87,4.87,0,0,0,3.8,1.74l2.52.17c1,.06,1.55.34,1.55.86s-.45.86-1.36.86c-.23,0-1-.07-2.28-.22-.62,0-1.53-.08-2.72-.08l-3.5-.05h-2.13a46.7,46.7,0,0,0-5.39.22c-.84.12-1.42.19-1.75.21-.87,0-1.31-.25-1.31-.84s.51-.79,1.51-1a3.65,3.65,0,0,0,2.68-1.59c.4-.78.61-2.42.61-5V77.5q0-4.95-5.33-5l-1.65,0c-.74,0-1.11-.3-1.11-.89,0-.35.24-.61.73-.79a8.28,8.28,0,0,1,1.06-.13Q496.82,70.4,503,67a3.41,3.41,0,0,1,1.11-.35c.75,0,1.12.46,1.12,1.47l-.05.81Z"/><path class="cls-9" d="M549.46,97.28,557.64,82a18.13,18.13,0,0,0,2.47-8.08c0-2-1.54-3.2-4.64-3.66-.87-.11-1.31-.39-1.31-.83,0-.59.42-.88,1.25-.88a16.31,16.31,0,0,1,1.79.13c.68,0,1.85.08,3.52.08q5,0,6.62-.13c.9-.06,1.5-.08,1.79-.08.77,0,1.14.24,1.11.71s-.72.77-2,1.22-2.57,1.78-3.73,4l-15.78,29.27a1.77,1.77,0,0,1-1.6,1.08,1.89,1.89,0,0,1-1.79-1.21l-14-28.32a9.32,9.32,0,0,0-5.28-5c-.68-.22-1-.51-1-.88,0-.58.48-.88,1.45-.88a9.62,9.62,0,0,1,1.11.09q2.37.25,8.79.26c2,0,3.33,0,4.11-.09,1.06-.08,1.78-.13,2.17-.13.74,0,1.11.27,1.11.88,0,.44-.46.71-1.35.8-3,.34-4.41,1.17-4.41,2.49a7.16,7.16,0,0,0,.87,2.87Z"/><path class="cls-10" d="M585.15,96.62c0,2,.25,3.41.75,4.09s1.56,1.14,3.17,1.34l2.23.21c1.16.14,1.73.51,1.7,1.1s-.47.71-1.32.71c-.54,0-1.6-.07-3.15-.2-.87-.06-2-.1-3.4-.1l-3.11,0-3.54.17A13.71,13.71,0,0,0,577,104c-.84.08-1.42.13-1.74.13-.88,0-1.32-.27-1.32-.8s.3-.75.88-.92l.92-.26a3.38,3.38,0,0,0,2.15-1.63,8.44,8.44,0,0,0,.61-3.74V78.09c0-2.37-.26-3.92-.78-4.63s-1.63-1.08-3.34-1.08c-1.23,0-1.82-.22-1.79-.67s.86-.81,2.48-1.26a55.29,55.29,0,0,0,6.9-2.75l2.58-1.08c.42,0,.63.37.63,1Zm-3-46.85c.77,0,1.57.57,2.38,1.72l1.17,1.65a1.77,1.77,0,0,1,.49,1.08c0,.66-.52,1.58-1.66,2.76s-2,1.77-2.73,1.77-1.5-.57-2.58-1.73a4.81,4.81,0,0,1-1.6-2.72c0-.66.59-1.58,1.78-2.76S581.48,49.77,582.13,49.77Z"/><path class="cls-11" d="M619.1,67.52a26.76,26.76,0,0,1,7.43.94c2.18.62,3.27,1.33,3.27,2.12l0,1.29.34,3.26c0,1.52-.39,2.31-1.18,2.37-.37,0-.83-.4-1.39-1.28A12.46,12.46,0,0,0,622.33,72a15.94,15.94,0,0,0-7.08-1.8A9.37,9.37,0,0,0,607.52,74a15.61,15.61,0,0,0-3,9.9A17.1,17.1,0,0,0,609.14,96a14.88,14.88,0,0,0,11.31,5A17.38,17.38,0,0,0,631,97.06a2.24,2.24,0,0,1,1.16-.51c.48-.06.73.14.73.59,0,.63-.78,1.56-2.33,2.79a22.43,22.43,0,0,1-14.43,4.79,18,18,0,0,1-12.95-5A16.48,16.48,0,0,1,598,87.32a18.47,18.47,0,0,1,6.18-14A21.1,21.1,0,0,1,619.1,67.52Z"/><path class="cls-12" d="M659.1,67.52a22.05,22.05,0,0,1,15,5.44q6.26,5.43,6.25,13a17.07,17.07,0,0,1-6.15,13.48q-6.15,5.33-15.55,5.33-9.2,0-15.13-5.18a16.78,16.78,0,0,1-5.93-13.25A17,17,0,0,1,643.84,73,22.47,22.47,0,0,1,659.1,67.52Zm-1.23,1.72a12.69,12.69,0,0,0-9.75,4,14.73,14.73,0,0,0-3.7,10.43A20.72,20.72,0,0,0,649,97.39a14.39,14.39,0,0,0,11.48,5.52A12,12,0,0,0,670,99q3.46-3.91,3.46-10.62,0-8.47-4.35-13.8A13.81,13.81,0,0,0,657.87,69.24Z"/><path class="cls-13" d="M399.37,154.16l6.89-12.87a15.36,15.36,0,0,0,2.09-6.82q0-2.49-3.92-3.08c-.73-.09-1.1-.33-1.1-.7s.35-.75,1.06-.75c.35,0,.85,0,1.5.11s1.57.07,3,.07c2.8,0,4.66,0,5.58-.11.76,0,1.26-.07,1.51-.07.65,0,1,.2.93.61s-.59.65-1.71,1-2.17,1.5-3.14,3.34L398.71,159.6a1.5,1.5,0,0,1-1.34.91,1.6,1.6,0,0,1-1.52-1L384,135.6a7.82,7.82,0,0,0-4.45-4.21c-.57-.19-.86-.44-.86-.74,0-.5.41-.74,1.22-.74a8.1,8.1,0,0,1,.94.07c1.33.14,3.8.22,7.41.22,1.66,0,2.81,0,3.46-.08.9-.07,1.51-.11,1.84-.11.62,0,.94.23.94.75s-.39.59-1.15.67c-2.48.29-3.71,1-3.71,2.1a6,6,0,0,0,.73,2.42Z"/><path class="cls-14" d="M434.9,129.07a18.6,18.6,0,0,1,12.61,4.58,14,14,0,0,1,5.27,10.92A14.43,14.43,0,0,1,447.6,156a19.34,19.34,0,0,1-13.11,4.49q-7.77,0-12.77-4.37a14.17,14.17,0,0,1-5-11.17A14.33,14.33,0,0,1,422,133.69,18.93,18.93,0,0,1,434.9,129.07Zm-1,1.45a10.72,10.72,0,0,0-8.22,3.35,12.41,12.41,0,0,0-3.12,8.8,17.42,17.42,0,0,0,3.9,11.58,12.1,12.1,0,0,0,9.68,4.66,10.1,10.1,0,0,0,8-3.3c1.94-2.2,2.91-5.19,2.91-9,0-4.77-1.22-8.64-3.67-11.64A11.65,11.65,0,0,0,433.86,130.52Z"/><path class="cls-15" d="M469.28,108.59v42.56a10.85,10.85,0,0,0,.77,4.57c.61,1.21,2.29,2,5.07,2.43.76.12,1.16.37,1.18.75,0,.54-.26.81-.86.81a5.57,5.57,0,0,1-1.06-.15,12,12,0,0,0-1.84-.1l-3.56,0h-2.13c-2.6,0-4.19,0-4.79.11q-1.31.18-1.56.18c-.71,0-1.07-.23-1.1-.71s.35-.69,1.14-.89a4.59,4.59,0,0,0,2.47-1.24,4,4,0,0,0,.64-2.53v-40.2c0-2.23-.88-3.34-2.62-3.34l-2,.07a2.71,2.71,0,0,1-.69-.07c-.33-.13-.5-.32-.5-.6s.36-.61,1.07-.78a19,19,0,0,0,2.54-.69l2.5-.9a20.92,20.92,0,0,0,4-1.74,1.62,1.62,0,0,1,.82-.29c.41,0,.61.5.61,1.59Z"/><path class="cls-16" d="M507.75,155a14.76,14.76,0,0,1-11.52,5.44q-5.72,0-8.92-3.14t-3.21-8.76l0-2.39v-12a3.27,3.27,0,0,0-.86-2.58,5.55,5.55,0,0,0-3.19-.83c-.68-.05-1-.3-1-.74s.87-.68,2.53-.75l3.09-.1a27,27,0,0,0,3.05-.51,3.78,3.78,0,0,1,.89-.15c.73,0,1.1.57,1.1,1.71v.54L489.62,147v1.16l.65,4.38a7.88,7.88,0,0,0,3.19,3.85,9.16,9.16,0,0,0,5.08,1.52A11.28,11.28,0,0,0,505,156q2.81-1.87,2.8-4.28V134.36a3.86,3.86,0,0,0-.8-2.82,4.3,4.3,0,0,0-3-.76c-.87,0-1.31-.23-1.31-.68s.5-.82,1.48-.85l1.35-.07,2.85-.11a14.75,14.75,0,0,0,3.19-.58,5.59,5.59,0,0,1,1-.18c.57,0,.85.41.85,1.3v23.55c0,1.85.23,3.08.68,3.67s1.37.89,2.76.89h.65l.57,0c.6,0,.91.19.94.56s-.76.81-2.37.89l-2.57.15a24.18,24.18,0,0,0-3.43.28,7.31,7.31,0,0,1-1.51.22c-.87,0-1.31-1.13-1.31-3.39Z"/><path class="cls-17" d="M535.32,134.84q5.46-5.78,11.35-5.77A12.51,12.51,0,0,1,557,133.83q2.63,3.25,2.62,9.94v8.68l0,1.09.12,1.74q.45,2.4,3.43,2.8l1.71.22c.74.09,1.12.33,1.15.7,0,.52-.42.78-1.35.78-.3,0-.83,0-1.58-.12a48.43,48.43,0,0,0-5-.17l-4,.11h-1.54l-1.19.08-.57-.12a.57.57,0,0,1-.28-.56c0-.37.24-.6.73-.7l1.23-.29c1.09-.24,1.63-1.11,1.63-2.61V142.91c0-3.36-.88-5.95-2.62-7.77s-4.23-2.73-7.45-2.73a10.58,10.58,0,0,0-6,1.77q-2.64,1.78-2.64,4.06v13.84l0,1.1,0,1.81c.13,2,2,3.15,5.67,3.34q1.35.12,1.35.78c0,.45-.31.67-.94.67a16.58,16.58,0,0,1-2.08-.2q-.78-.09-3.84-.09c-4.33,0-6.91.06-7.76.17s-1.39.12-1.63.12c-.52,0-.76-.2-.74-.59s.29-.54.78-.71a5.6,5.6,0,0,0,2.8-1.59,5.15,5.15,0,0,0,.71-3V137.48a6.14,6.14,0,0,0-.7-3.5,3.11,3.11,0,0,0-2.61-.92l-1.75,0A1.43,1.43,0,0,1,524,133a.53.53,0,0,1-.36-.52c0-.35.35-.59,1.06-.71a23.34,23.34,0,0,0,5.27-1.49l2.16-.94,1.59-.69a2.3,2.3,0,0,1,1-.29q.74,0,.66,1.05c0,.39,0,.85,0,1.38Z"/><path class="cls-18" d="M579.75,133.46V151.7c0,2.37.38,3.9,1.14,4.6a6.76,6.76,0,0,0,4.78,1.56,10,10,0,0,0,4.21-.79l2.12-.91.25-.07q.48,0,.48.39c0,.79-1.07,1.65-3.22,2.57a15.36,15.36,0,0,1-6,1.39q-9.39,0-9.4-8.69V133.46h-3.63c-.71,0-1.06-.19-1.06-.55s.35-.77,1.06-1.31a33.56,33.56,0,0,0,7.31-7.2c.73-1.07,1.25-1.6,1.55-1.6s.57.31.57.94l-.16,6.27h8.7a5.44,5.44,0,0,0,2.77-.58,2.61,2.61,0,0,1,.9-.43c.3-.05.44.08.41.4a3.29,3.29,0,0,1-.36.92l-.95,2.08a1.73,1.73,0,0,1-1.79,1.06Z"/><path class="cls-19" d="M614.58,143.54v-4.47q0-4.15-1.75-5.73a9.11,9.11,0,0,0-6.37-2.17c-3.6,0-5.39,1.35-5.39,4a8.38,8.38,0,0,0,.53,2.73,4.21,4.21,0,0,1,.28,1.16c0,.43-.24.64-.81.64a8.15,8.15,0,0,1-3.46-.72c-1.05-.48-1.57-1-1.57-1.6q0-2.24,2.74-4.84a13.57,13.57,0,0,1,9.76-3.5q5.55,0,8.62,2.19a7.16,7.16,0,0,1,3.06,6.18v14.19a9.3,9.3,0,0,0,.92,4.8,3.38,3.38,0,0,0,3.08,1.43,6.29,6.29,0,0,0,1-.06,6.75,6.75,0,0,1,1-.16c.46,0,.68.15.65.51s-.66.88-1.92,1.32a10.9,10.9,0,0,1-3.69.68c-2.24,0-4.26-1.24-6.06-3.7-3.94,2.65-7.6,4-11,4a9.47,9.47,0,0,1-6.09-1.83,6,6,0,0,1-2.26-4.92c0-2.78,1.43-4.93,4.28-6.47S607.79,144.46,614.58,143.54Zm0,1.45q-6.33.51-9.78,2.54t-3.45,5.21a5,5,0,0,0,1.65,3.95,6.44,6.44,0,0,0,4.44,1.46,8.47,8.47,0,0,0,5.72-2,5.09,5.09,0,0,0,1.42-4Zm-4.16-25.53a7.55,7.55,0,0,1-2.77,1.37c-.53,0-.77-.24-.74-.72a10.81,10.81,0,0,1,1.23-2.93q1.17-2.24,1.44-2.82l.88-1.84a1.32,1.32,0,0,1,.94-.84,27,27,0,0,1,3.66-.13c1.07,0,1.61.45,1.61,1.34a1.58,1.58,0,0,1-.57,1l-.6.62Z"/><path class="cls-20" d="M642,135.67q4.72-6.6,8.74-6.6a6.74,6.74,0,0,1,3.32,1.34c1.38.9,2.09,1.62,2.15,2.18,0,.36-.41,1-1.31,2s-1.53,1.47-1.91,1.49a7,7,0,0,1-1.79-.87,6.33,6.33,0,0,0-3.34-1.09,5.73,5.73,0,0,0-4.15,1.6,5.27,5.27,0,0,0-1.67,4v12.92a7.59,7.59,0,0,0,.92,4.32,4,4,0,0,0,3.2,1.46l2.13.15c.87,0,1.3.29,1.3.73s-.38.72-1.14.72c-.19,0-.83-.06-1.93-.18-.51,0-1.28-.07-2.29-.07l-3,0h-1.8a39.17,39.17,0,0,0-4.54.18c-.71.1-1.2.16-1.48.18-.73,0-1.1-.21-1.1-.71s.42-.67,1.27-.81a3.06,3.06,0,0,0,2.26-1.34,10.75,10.75,0,0,0,.51-4.17V137.48c0-2.78-1.49-4.17-4.49-4.17l-1.39,0c-.62,0-.94-.25-.94-.75,0-.29.21-.51.62-.66a6.16,6.16,0,0,1,.89-.11,23.91,23.91,0,0,0,9.07-3.19,2.69,2.69,0,0,1,.94-.29c.62,0,.94.38.94,1.23l0,.69Z"/><path class="cls-21" d="M671.06,153.62a6.3,6.3,0,0,0,.64,3.44,3.75,3.75,0,0,0,2.67,1.12l1.88.19c1,.12,1.46.42,1.43.92s-.4.6-1.11.6c-.46,0-1.35,0-2.66-.16-.74-.06-1.69-.09-2.86-.09l-2.63,0-3,.15a8.65,8.65,0,0,0-1.27.11c-.71.07-1.2.1-1.48.1-.73,0-1.1-.22-1.1-.67s.24-.63.74-.78l.77-.21a2.86,2.86,0,0,0,1.82-1.38,7.35,7.35,0,0,0,.51-3.15V138c0-2-.22-3.31-.66-3.91s-1.37-.91-2.81-.91c-1,0-1.54-.19-1.51-.57s.72-.68,2.09-1.06a45.86,45.86,0,0,0,5.82-2.32l2.17-.91c.36,0,.53.31.53.87Zm-2.55-39.53c.66,0,1.33.49,2,1.46l1,1.39a1.54,1.54,0,0,1,.41.91c0,.56-.44,1.33-1.4,2.33s-1.72,1.5-2.3,1.5-1.27-.49-2.17-1.46a4,4,0,0,1-1.36-2.3c0-.56.5-1.33,1.5-2.33S668,114.09,668.51,114.09Z"/><path class="cls-22" d="M700.06,129.07a18.62,18.62,0,0,1,12.62,4.58,14,14,0,0,1,5.26,10.92A14.4,14.4,0,0,1,712.76,156a19.34,19.34,0,0,1-13.11,4.49q-7.75,0-12.76-4.37a14.14,14.14,0,0,1-5-11.17,14.35,14.35,0,0,1,5.3-11.21A18.93,18.93,0,0,1,700.06,129.07Zm-1,1.45a10.72,10.72,0,0,0-8.22,3.35,12.41,12.41,0,0,0-3.12,8.8,17.42,17.42,0,0,0,3.9,11.58,12.1,12.1,0,0,0,9.68,4.66,10.08,10.08,0,0,0,8-3.3c1.94-2.2,2.92-5.19,2.92-9,0-4.77-1.23-8.64-3.67-11.64A11.66,11.66,0,0,0,699,130.52Z"/><path class="cls-23" d="M450.9,184.22v-2.69a4.9,4.9,0,0,0-.95-3.46,4.53,4.53,0,0,0-3.41-1.31c-1.92,0-2.88.82-2.88,2.44a5.69,5.69,0,0,0,.28,1.64,2.52,2.52,0,0,1,.15.7c0,.26-.13.39-.43.39a4,4,0,0,1-1.86-.44c-.56-.29-.83-.61-.83-1a4.45,4.45,0,0,1,1.46-2.92,6.79,6.79,0,0,1,5.23-2.11,7.17,7.17,0,0,1,4.61,1.32,4.49,4.49,0,0,1,1.64,3.72v8.56a6.06,6.06,0,0,0,.5,2.9,1.72,1.72,0,0,0,1.65.86,2.49,2.49,0,0,0,.52,0,3,3,0,0,1,.52-.09c.25,0,.37.09.35.31s-.35.52-1,.8a5.25,5.25,0,0,1-2,.4c-1.2,0-2.28-.74-3.25-2.23a10,10,0,0,1-5.87,2.4,4.61,4.61,0,0,1-3.26-1.1,3.8,3.8,0,0,1-1.21-3,4.34,4.34,0,0,1,2.29-3.91C444.68,185.52,447.25,184.78,450.9,184.22Zm0,.88a11.23,11.23,0,0,0-5.24,1.53,3.65,3.65,0,0,0-1.85,3.14,3,3,0,0,0,3.26,3.27,4.21,4.21,0,0,0,3.06-1.2,3.29,3.29,0,0,0,.77-2.41Z"/><path class="cls-24" d="M478.6,191.18a18.23,18.23,0,0,1-3.62,2.57,7.16,7.16,0,0,1-3.13.66,7,7,0,0,1-5.53-2.57,9.36,9.36,0,0,1-2.24-6.38,10,10,0,0,1,2.67-7.08,8.6,8.6,0,0,1,6.56-2.88,10.29,10.29,0,0,1,5.29,1.55v-8.62q0-4.16-2.23-4l-.77,0a.86.86,0,0,1-.28,0,.35.35,0,0,1-.24-.33c0-.31.18-.48.63-.54a13.68,13.68,0,0,0,5.14-2,.83.83,0,0,1,.41-.15c.23,0,.33.16.33.48l0,.4V190c0,1.65.5,2.47,1.5,2.47l1.3,0,.19,0a.33.33,0,0,1,.24.34c0,.31-.26.5-.79.55s-1,.11-1.14.14l-1.23.19a7.88,7.88,0,0,0-1.93.46,1.48,1.48,0,0,1-.66.24c-.33,0-.5-.34-.5-1.08Zm0-2.65v-7.2a3.82,3.82,0,0,0-1-2.88,7.12,7.12,0,0,0-5.12-2.08,5.21,5.21,0,0,0-4.26,2,8.17,8.17,0,0,0-1.62,5.29,9.58,9.58,0,0,0,2.12,6.21,6.31,6.31,0,0,0,5,2.63,5.33,5.33,0,0,0,3.48-1.1A3.57,3.57,0,0,0,478.6,188.53Z"/><path class="cls-25" d="M500.46,190.63l3.69-7.76a10.06,10.06,0,0,0,1.12-4.12c0-1-.7-1.62-2.09-1.85-.4-.06-.6-.2-.6-.43s.2-.45.57-.45a6,6,0,0,1,.81.07c.3,0,.83,0,1.59,0,1.5,0,2.49,0,3-.06l.8,0c.35,0,.52.12.5.37s-.32.39-.91.62a3.71,3.71,0,0,0-1.69,2l-7.13,14.89a.8.8,0,0,1-.72.55.87.87,0,0,1-.81-.62l-6.34-14.4a4.37,4.37,0,0,0-2.38-2.54c-.31-.12-.46-.27-.46-.45s.22-.45.65-.45a3.62,3.62,0,0,1,.5,0,37.51,37.51,0,0,0,4,.14c.89,0,1.51,0,1.86-.05s.8-.06,1-.06.5.13.5.44-.2.36-.61.41c-1.33.17-2,.59-2,1.26a4,4,0,0,0,.39,1.47Z"/><path class="cls-26" d="M517.32,183l0,.48a9.68,9.68,0,0,0,2.07,6.29,6.32,6.32,0,0,0,5.09,2.54,8.78,8.78,0,0,0,5.19-2.14A.68.68,0,0,1,530,190c.21,0,.31.1.31.35,0,.43-.51,1.05-1.53,1.84a9.57,9.57,0,0,1-6,2.22,7.69,7.69,0,0,1-6-2.71,9.69,9.69,0,0,1-2.41-6.7,9.8,9.8,0,0,1,2.49-6.65,7.55,7.55,0,0,1,5.84-2.85,6.85,6.85,0,0,1,5.84,3,11.67,11.67,0,0,1,1.07,2,5.54,5.54,0,0,1,.54,1.77c0,.48-.47.72-1.42.72l-1.62,0-1.49,0Zm.13-1.2h7.41c1.16,0,1.73-.24,1.73-.7a4.44,4.44,0,0,0-1.47-3.18,4.53,4.53,0,0,0-3.21-1.46,3.73,3.73,0,0,0-3,1.43A7.26,7.26,0,0,0,517.45,181.78Z"/><path class="cls-27" d="M543.56,179c2-2.31,4-3.47,6.07-3.47a6.41,6.41,0,0,1,5.54,2.87q1.4,2,1.4,6v5.23l0,.66.06,1.05a2,2,0,0,0,1.84,1.68l.92.13c.39.06.6.2.61.43s-.23.47-.72.47a7.87,7.87,0,0,1-.85-.07,21.69,21.69,0,0,0-2.66-.11l-2.16.07h-.83l-.63.05-.31-.07a.37.37,0,0,1-.15-.34c0-.22.13-.37.4-.43l.65-.17c.58-.15.88-.67.88-1.57v-7.54a7,7,0,0,0-1.41-4.68,4.93,4.93,0,0,0-4-1.65,5.26,5.26,0,0,0-3.24,1.07,3.05,3.05,0,0,0-1.41,2.45v8.35l0,.65,0,1.1c.07,1.23,1.09,1.9,3,2,.48,0,.72.2.72.46s-.17.41-.5.41a6.8,6.8,0,0,1-1.12-.13c-.27,0-1,0-2,0-2.32,0-3.7,0-4.16.11s-.74.07-.87.07-.41-.12-.4-.36.16-.32.42-.43a3,3,0,0,0,1.5-1,3.42,3.42,0,0,0,.38-1.83v-9.87a4.1,4.1,0,0,0-.37-2.11,1.57,1.57,0,0,0-1.4-.56l-.94,0a.67.67,0,0,1-.35-.08.33.33,0,0,1-.2-.32c0-.21.19-.35.57-.43a11.15,11.15,0,0,0,2.82-.89l1.16-.57.85-.42a1.19,1.19,0,0,1,.53-.17c.26,0,.38.21.35.63,0,.23,0,.51,0,.83Z"/><path class="cls-28" d="M571.83,178.14v11a4.26,4.26,0,0,0,.61,2.78,3.36,3.36,0,0,0,2.56.94,4.8,4.8,0,0,0,2.25-.48l1.14-.55.13,0c.18,0,.26.08.26.24,0,.47-.57,1-1.72,1.55a7.43,7.43,0,0,1-3.22.83c-3.35,0-5-1.74-5-5.24v-11h-1.94c-.39,0-.57-.11-.57-.33s.18-.47.57-.79a19.19,19.19,0,0,0,3.91-4.34c.39-.64.67-1,.83-1s.31.19.31.57l-.09,3.79h4.66a2.74,2.74,0,0,0,1.49-.35,1.42,1.42,0,0,1,.48-.27c.16,0,.23.05.21.25a2.11,2.11,0,0,1-.19.55l-.5,1.26a1,1,0,0,1-1,.63Z"/><path class="cls-29" d="M590.72,190.3a4.24,4.24,0,0,0,.34,2.08,1.91,1.91,0,0,0,1.43.68l1,.11c.52.07.78.25.76.55s-.21.36-.59.36-.72,0-1.42-.1c-.4,0-.91,0-1.54,0l-1.4,0-1.6.09a4.72,4.72,0,0,0-.68.06,6.77,6.77,0,0,1-.79.07c-.4,0-.59-.13-.59-.4s.13-.38.39-.48l.42-.13a1.56,1.56,0,0,0,1-.83,4.86,4.86,0,0,0,.27-1.9v-9.52a5.14,5.14,0,0,0-.35-2.36c-.23-.36-.73-.54-1.51-.54-.55,0-.82-.12-.81-.35s.39-.41,1.12-.64a21.4,21.4,0,0,0,3.12-1.4l1.16-.54c.2,0,.29.19.29.52Zm-1.36-23.83c.35,0,.71.29,1.07.87l.53.84a1,1,0,0,1,.22.55,2.35,2.35,0,0,1-.75,1.41q-.76.9-1.23.9c-.29,0-.68-.3-1.17-.88a1.66,1.66,0,0,1,.08-2.79C588.65,166.76,589.06,166.47,589.36,166.47Z"/><path class="cls-30" d="M607.05,175.5a8.82,8.82,0,0,1,3,.45l1,.32c.39.15.59.37.59.67v.35a4.17,4.17,0,0,0,0,.61l.09.85a6.78,6.78,0,0,1,.07.84c0,.57-.17.86-.5.87-.17,0-.34-.17-.49-.57a4.48,4.48,0,0,0-4.5-3.32,3.14,3.14,0,0,0-2.16.75,2.53,2.53,0,0,0,.07,3.83,14.91,14.91,0,0,0,3.66,1.83,10,10,0,0,1,3.8,2.26,4.65,4.65,0,0,1,1.06,3.19,5.66,5.66,0,0,1-1.83,4.23,6.07,6.07,0,0,1-4.36,1.75,9.07,9.07,0,0,1-3.94-1,2.19,2.19,0,0,0-.63-.23l-.57-.07a.54.54,0,0,1-.55-.54l0-.94-.07-2.79,0-.65c.06-.39.22-.6.49-.61s.45.2.54.65a7.09,7.09,0,0,0,1.78,3.77,4.29,4.29,0,0,0,3.18,1.35,3.67,3.67,0,0,0,2.61-.94,3.15,3.15,0,0,0,1-2.41,3.56,3.56,0,0,0-2.47-3.34l-1.93-.85a10.93,10.93,0,0,1-3.71-2.35,4.26,4.26,0,0,1-1.1-3,4.49,4.49,0,0,1,1.69-3.53A6.17,6.17,0,0,1,607.05,175.5Z"/><path class="cls-31" d="M625.38,178.14v11a4.26,4.26,0,0,0,.61,2.78,3.35,3.35,0,0,0,2.56.94,4.83,4.83,0,0,0,2.25-.48l1.13-.55.14,0c.17,0,.26.08.26.24,0,.47-.58,1-1.73,1.55a7.36,7.36,0,0,1-3.21.83c-3.36,0-5-1.74-5-5.24v-11h-2q-.57,0-.57-.33c0-.2.19-.47.57-.79a19.25,19.25,0,0,0,3.92-4.34c.39-.64.67-1,.83-1s.3.19.3.57l-.08,3.79H630a2.71,2.71,0,0,0,1.49-.35,1.52,1.52,0,0,1,.48-.27c.16,0,.23.05.22.25a1.92,1.92,0,0,1-.2.55l-.5,1.26a.93.93,0,0,1-1,.63Z"/><path class="cls-32" d="M649.23,184.22v-2.69a4.91,4.91,0,0,0-.94-3.46,4.54,4.54,0,0,0-3.41-1.31c-1.93,0-2.89.82-2.89,2.44a5.69,5.69,0,0,0,.28,1.64,3,3,0,0,1,.16.7c0,.26-.13.39-.43.39a3.93,3.93,0,0,1-1.86-.44q-.84-.44-.84-1a4.47,4.47,0,0,1,1.47-2.92A6.78,6.78,0,0,1,646,175.5a7.2,7.2,0,0,1,4.62,1.32,4.51,4.51,0,0,1,1.64,3.72v8.56a6.21,6.21,0,0,0,.49,2.9,1.74,1.74,0,0,0,1.65.86,2.43,2.43,0,0,0,.52,0,3.1,3.1,0,0,1,.53-.09c.25,0,.36.09.35.31s-.36.52-1,.8a5.3,5.3,0,0,1-2,.4c-1.2,0-2.28-.74-3.24-2.23a10,10,0,0,1-5.87,2.4,4.66,4.66,0,0,1-3.27-1.1,3.8,3.8,0,0,1-1.21-3,4.35,4.35,0,0,1,2.3-3.91C643,185.52,645.6,184.78,649.23,184.22Zm0,.88a11.27,11.27,0,0,0-5.24,1.53,3.67,3.67,0,0,0-1.85,3.14,3.05,3.05,0,0,0,3.27,3.27,4.24,4.24,0,0,0,3.06-1.2,3.29,3.29,0,0,0,.76-2.41Z"/></g></g></svg>